 <svg  version="1.0" xmlns="http://www.w3.org/2000/svg"  width="300.000000pt" height="169.000000pt" viewBox="0 0 300.000000 169.000000"  preserveAspectRatio="xMidYMid meet">  <g transform="translate(0.000000,169.000000) scale(0.100000,-0.100000)" fill="#ffffff" stroke="none"> <path d="M500 880 l0 -690 193 2 192 3 3 67 3 68 -116 0 -115 0 0 550 0 549 113 3 112 3 0 65 0 65 -192 3 -193 2 0 -690z"/> <path d="M2178 1548 c-2 -13 -1 -44 0 -70 l4 -48 109 0 109 0 0 -550 0 -550 -109 0 -109 0 -4 -54 c-6 -93 -21 -86 193 -86 l189 0 0 690 0 690 -189 0 c-189 0 -190 0 -193 -22z"/> <path d="M1643 1420 c-90 -19 -181 -88 -223 -170 -19 -36 -23 -40 -48 -33 -129 37 -298 -49 -334 -169 -11 -37 -12 -38 -60 -38 -87 0 -170 -56 -205 -137 -20 -49 -17 -139 8 -190 47 -97 167 -147 268 -112 28 10 36 8 69 -14 92 -63 250 -75 358 -28 l51 22 38 -25 c50 -34 110 -49 167 -43 60 7 103 29 155 79 40 39 42 40 78 28 87 -29 195 24 249 120 28 50 31 63 31 140 -1 91 -16 134 -71 199 -29 35 -92 71 -124 71 -11 0 -20 7 -20 15 0 8 -10 40 -22 72 -29 79 -122 173 -193 196 -68 21 -122 27 -172 17z m177 -42 c85 -36 168 -140 185 -231 7 -34 11 -38 53 -49 93 -23 172 -137 172 -248 0 -170 -161 -296 -292 -229 -13 7 -29 -3 -70 -44 -43 -43 -64 -57 -107 -67 -68 -16 -142 -1 -197 39 l-37 28 -56 -25 c-108 -50 -258 -39 -346 26 -38 27 -41 28 -80 14 -128 -45 -268 56 -268 192 0 118 90 206 211 206 l48 0 23 55 c30 71 95 130 169 151 51 15 84 15 157 -1 28 -6 32 -4 49 36 11 23 37 61 60 83 91 91 209 115 326 64z"/> <path d="M1487 1126 c-191 -71 -239 -303 -90 -437 49 -45 101 -63 173 -62 222 2 331 270 177 431 -66 69 -178 99 -260 68z m139 -21 c91 -27 157 -104 170 -198 18 -132 -94 -257 -231 -257 -58 0 -65 4 -90 48 -25 41 -43 41 -36 -1 2 -11 -32 8 -50 30 -49 55 -69 146 -49 219 19 66 82 131 150 154 67 24 74 24 136 5z"/> <path d="M1442 1000 c-42 -80 -49 -100 -34 -100 7 0 92 162 92 175 0 3 -4 5 -8 5 -5 0 -27 -36 -50 -80z"/> <path d="M1465 980 c-27 -55 -47 -101 -44 -104 10 -9 210 -106 219 -106 9 0 100 181 100 199 0 4 -20 17 -45 29 -25 12 -45 27 -45 32 0 6 -4 8 -10 5 -5 -3 -10 -1 -10 5 0 6 -4 8 -10 5 -5 -3 -27 3 -49 15 -22 11 -44 20 -49 20 -4 0 -30 -45 -57 -100z"/> <path d="M1707 865 c-26 -52 -47 -97 -47 -100 0 -2 7 -2 15 1 8 3 33 39 55 79 30 54 38 78 32 94 -6 18 -15 6 -55 -74z"/> <path d="M1484 806 c-7 -19 25 -88 38 -80 14 9 9 38 -12 69 -16 25 -20 27 -26 11z"/> <path d="M1510 812 c1 -16 29 -44 39 -37 17 10 13 21 -14 33 -14 6 -25 8 -25 4z"/> <path d="M1460 753 c0 -10 9 -29 19 -42 25 -32 37 -11 16 29 -17 33 -35 40 -35 13z"/> <path d="M1224 313 c-3 -16 -10 -45 -15 -66 -11 -42 -6 -57 20 -57 13 0 17 8 17 38 -1 20 3 54 7 75 6 30 5 37 -7 37 -9 0 -18 -12 -22 -27z"/> <path d="M1588 318 c-2 -15 -13 -24 -35 -30 -21 -6 -34 -17 -40 -36 -16 -48 -7 -61 41 -60 l42 0 16 74 c14 70 14 74 -3 74 -10 0 -19 -9 -21 -22z m-8 -52 c0 -16 -21 -56 -30 -56 -11 0 -14 43 -3 53 7 8 33 10 33 3z"/> <path d="M1100 310 c-23 -23 -28 -88 -8 -108 19 -19 88 -16 88 4 0 11 -5 14 -16 10 -24 -9 -54 12 -54 39 0 30 40 59 70 50 14 -5 20 -2 20 9 0 25 -75 21 -100 -4z"/> <path d="M1770 305 c0 -8 -4 -15 -8 -15 -4 0 -8 -21 -7 -47 0 -42 3 -48 23 -51 21 -3 32 13 13 20 -14 5 0 58 15 58 8 0 14 5 14 10 0 6 -4 10 -10 10 -5 0 -10 7 -10 15 0 8 -7 15 -15 15 -8 0 -15 -7 -15 -15z"/> <path d="M1281 276 c-7 -8 -11 -30 -9 -48 3 -28 7 -33 31 -36 48 -6 79 36 61 82 -8 20 -67 21 -83 2z m54 -16 c10 -16 -5 -50 -21 -50 -8 0 -14 10 -14 23 0 34 21 50 35 27z"/> <path d="M1395 278 c-3 -7 -6 -29 -7 -48 l-3 -35 46 -2 c46 -2 47 -2 53 35 9 53 8 62 -7 62 -8 0 -18 -17 -23 -37 -5 -20 -15 -39 -23 -41 -11 -4 -13 4 -8 37 4 31 2 41 -9 41 -8 0 -17 -6 -19 -12z"/> <path d="M1653 282 c-16 -10 -30 -53 -26 -74 3 -13 14 -17 47 -16 l43 0 10 49 10 49 -36 0 c-20 0 -41 -4 -48 -8z m47 -23 c0 -17 -20 -49 -30 -49 -11 0 -14 43 -3 53 10 11 33 8 33 -4z"/> <path d="M1836 268 c-31 -44 -11 -82 41 -76 35 4 59 47 43 78 -15 28 -64 27 -84 -2z m52 -25 c-3 -30 -25 -42 -34 -19 -6 17 11 46 28 46 5 0 8 -12 6 -27z"/> <path d="M1950 278 c0 -7 -3 -30 -6 -50 -5 -30 -3 -38 9 -38 9 0 17 13 21 34 4 22 14 37 26 41 32 10 23 25 -15 25 -21 0 -35 -5 -35 -12z"/> </g> </svg> 