 <svg  version="1.0" xmlns="http://www.w3.org/2000/svg"  width="300.000000pt" height="169.000000pt" viewBox="0 0 300.000000 169.000000"  preserveAspectRatio="xMidYMid meet">  <g transform="translate(0.000000,169.000000) scale(0.050000,-0.050000)" fill="#ffffff" stroke="none"> <path d="M1785 3365 c96 -4 254 -4 350 0 96 4 18 7 -175 7 -192 0 -271 -3 -175 -7z"/> <path d="M2516 3365 c113 -4 293 -3 400 0 107 4 14 7 -206 7 -220 0 -307 -3 -194 -7z"/> <path d="M3235 3365 c69 -4 181 -4 250 0 69 4 13 7 -125 7 -137 0 -194 -3 -125 -7z"/> <path d="M3915 3365 c91 -4 239 -4 330 0 91 4 17 7 -165 7 -181 0 -256 -3 -165 -7z"/> <path d="M4715 3365 c91 -4 239 -4 330 0 91 4 17 7 -165 7 -181 0 -256 -3 -165 -7z"/> <path d="M5515 3365 c91 -4 239 -4 330 0 91 4 17 7 -165 7 -181 0 -256 -3 -165 -7z"/> <path d="M765 2378 c-118 -58 -153 -130 -213 -426 -75 -375 -69 -430 59 -484 245 -102 504 90 509 377 0 8 -62 15 -137 15 l-138 0 -13 -99 c-11 -87 -40 -140 -62 -118 -6 6 66 387 100 532 6 25 21 45 33 45 20 0 19 -24 -17 -206 l-11 -56 137 6 138 6 18 136 c37 273 -148 398 -403 272z"/> <path d="M1203 1974 c-47 -235 -90 -446 -96 -470 -11 -42 -6 -44 127 -44 l140 0 25 145 c13 80 55 287 93 461 37 174 68 321 68 325 0 5 -61 9 -136 9 l-136 0 -85 -426z"/> <path d="M3091 2310 c-13 -86 -16 -89 -67 -76 -196 50 -237 -3 -317 -413 l-56 -281 43 -43 c25 -24 67 -42 99 -41 32 0 136 1 232 2 173 0 175 1 175 50 0 50 152 809 173 863 9 24 -15 29 -129 29 l-139 0 -14 -90z m-90 -473 c-40 -197 -52 -233 -69 -215 -9 8 61 384 81 438 32 85 25 -41 -12 -223z"/> <path d="M4013 2327 c-7 -8 -13 -35 -13 -60 0 -27 -12 -47 -28 -47 -35 0 -64 -140 -33 -159 15 -10 10 -72 -19 -210 -71 -345 -54 -391 139 -391 104 0 118 5 128 45 21 77 14 115 -19 115 -23 0 -29 13 -22 45 6 25 26 123 45 218 26 136 42 176 71 183 21 6 38 28 38 50 0 23 5 55 12 72 8 21 1 32 -19 32 -25 0 -29 14 -20 60 l12 60 -129 0 c-71 0 -135 -6 -143 -13z"/> <path d="M1766 2241 c-162 -40 -207 -110 -268 -425 -58 -301 -16 -369 226 -362 189 4 260 82 317 351 63 295 31 434 -99 435 -18 0 -50 4 -72 9 -22 4 -69 1 -104 -8z m74 -169 c0 -76 -97 -462 -112 -447 -16 17 75 455 95 455 9 0 17 -4 17 -8z"/> <path d="M3570 2242 c-131 -33 -181 -89 -228 -256 l-19 -64 84 -6 83 -6 -70 -32 c-195 -89 -216 -427 -27 -422 32 0 131 1 221 2 l164 0 13 76 c8 42 31 160 51 263 61 302 38 443 -73 443 -13 0 -50 4 -81 9 -32 4 -85 1 -118 -7z m70 -181 c0 -36 -41 -126 -52 -115 -17 17 12 134 34 134 10 0 18 -8 18 -19z m-71 -346 c-17 -82 -49 -119 -49 -58 0 47 33 123 52 123 6 0 5 -29 -3 -65z"/> <path d="M4530 2241 c-173 -41 -290 -288 -290 -610 0 -218 373 -254 499 -48 52 86 126 482 101 546 -34 90 -180 144 -310 112z m29 -399 c-25 -122 -53 -222 -64 -222 -11 0 -14 20 -7 45 6 25 26 122 44 215 33 173 45 210 61 193 6 -5 -10 -109 -34 -231z"/> <path d="M5239 2206 c-59 -49 -63 -50 -41 -10 23 43 22 44 -114 44 l-138 0 -56 -293 c-30 -162 -67 -337 -81 -390 l-25 -97 136 0 c157 0 141 -22 191 254 34 193 48 218 127 229 44 6 90 125 121 312 4 24 -69 -6 -120 -49z"/> <path d="M2172 2215 c-24 -90 -112 -598 -112 -649 0 -76 43 -114 126 -111 35 1 138 2 228 3 156 0 165 3 174 46 70 364 134 678 144 704 11 28 -7 32 -125 32 l-137 0 -59 -310 c-32 -171 -66 -310 -75 -310 -22 0 27 297 95 566 l13 54 -132 0 c-90 0 -135 -8 -140 -25z"/> </g> </svg> 